<svg xmlns="http://www.w3.org/2000/svg" viewBox="0 0 1200 420" role="img" aria-labelledby="title desc">
  <title id="title">Porra Mundial 2026</title>
  <desc id="desc">Cabecera decorativa con una estética clara inspirada en los colores rojo, verde y azul del Mundial 2026.</desc>
  <defs>
    <linearGradient id="page" x1="0%" y1="0%" x2="100%" y2="100%">
      <stop offset="0%" stop-color="#ffffff"/>
      <stop offset="52%" stop-color="#f4f7ff"/>
      <stop offset="100%" stop-color="#eaf1ff"/>
    </linearGradient>
    <linearGradient id="gold" x1="0%" x2="100%">
      <stop offset="0%" stop-color="#b88923"/>
      <stop offset="48%" stop-color="#d9a72f"/>
      <stop offset="100%" stop-color="#f0c65a"/>
    </linearGradient>
    <filter id="softShadow" x="-20%" y="-30%" width="140%" height="160%">
      <feDropShadow dx="0" dy="18" stdDeviation="18" flood-color="#081b46" flood-opacity=".18"/>
    </filter>
  </defs>

  <rect width="1200" height="420" rx="0" fill="url(#page)"/>
  <circle cx="90" cy="35" r="180" fill="#e1253b" opacity=".13"/>
  <circle cx="1095" cy="15" r="220" fill="#0057d8" opacity=".14"/>
  <circle cx="920" cy="420" r="240" fill="#00a66a" opacity=".13"/>

  <path d="M-30 314 C170 214 300 388 496 292 C690 196 850 330 1045 238 C1120 202 1168 190 1230 198" fill="none" stroke="#0057d8" stroke-width="28" stroke-linecap="round" opacity=".92"/>
  <path d="M-20 354 C175 270 318 408 508 338 C702 266 830 374 1018 304 C1106 272 1158 254 1220 264" fill="none" stroke="#00a66a" stroke-width="22" stroke-linecap="round" opacity=".9"/>
  <path d="-10 390 C180 328 330 424 526 374 C722 324 842 410 1018 354 C1104 326 1160 318 1218 332" fill="none" stroke="#e1253b" stroke-width="18" stroke-linecap="round" opacity=".88"/>

  <g transform="translate(390 96)">
    <text x="0" y="62" font-family="'Arial Black', Impact, sans-serif" font-size="66" fill="#081b46" letter-spacing="-2">PORRA MUNDIAL</text>
    <text x="2" y="132" font-family="'Arial Black', Impact, sans-serif" font-size="76" fill="url(#gold)" letter-spacing="2">2026</text>
  </g>

</svg>
